<mxfile host="app.diagrams.net" agent="Mozilla/5.0 (Windows NT 10.0; Win64; x64) AppleWebKit/537.36 (KHTML, like Gecko) Chrome/133.0.0.0 Safari/537.36" version="26.0.14">
  <diagram name="Page-1" id="eAJhPCXJ-7GSu0hqzB6S">
    <mxGraphModel dx="2074" dy="1132" grid="1" gridSize="10" guides="1" tooltips="1" connect="1" arrows="1" fold="1" page="1" pageScale="1" pageWidth="850" pageHeight="1100" math="0" shadow="0">
      <root>
        <mxCell id="0" />
        <mxCell id="1" parent="0" />
        <mxCell id="pan-JeQH0AOP0zi9Ihkc-2" style="edgeStyle=orthogonalEdgeStyle;rounded=0;orthogonalLoop=1;jettySize=auto;html=1;" edge="1" parent="1" source="pan-JeQH0AOP0zi9Ihkc-1" target="pan-JeQH0AOP0zi9Ihkc-4">
          <mxGeometry relative="1" as="geometry">
            <mxPoint x="160" y="200" as="targetPoint" />
          </mxGeometry>
        </mxCell>
        <mxCell id="pan-JeQH0AOP0zi9Ihkc-3" style="edgeStyle=orthogonalEdgeStyle;rounded=0;orthogonalLoop=1;jettySize=auto;html=1;" edge="1" parent="1" source="pan-JeQH0AOP0zi9Ihkc-1" target="pan-JeQH0AOP0zi9Ihkc-5">
          <mxGeometry relative="1" as="geometry">
            <mxPoint x="640" y="200" as="targetPoint" />
          </mxGeometry>
        </mxCell>
        <mxCell id="pan-JeQH0AOP0zi9Ihkc-1" value="I2C1-&amp;gt; CMD = I2C_CMD_START" style="rounded=1;whiteSpace=wrap;html=1;" vertex="1" parent="1">
          <mxGeometry x="370" y="50" width="115" height="60" as="geometry" />
        </mxCell>
        <mxCell id="pan-JeQH0AOP0zi9Ihkc-7" value="" style="edgeStyle=orthogonalEdgeStyle;rounded=0;orthogonalLoop=1;jettySize=auto;html=1;" edge="1" parent="1" source="pan-JeQH0AOP0zi9Ihkc-4" target="pan-JeQH0AOP0zi9Ihkc-6">
          <mxGeometry relative="1" as="geometry" />
        </mxCell>
        <mxCell id="pan-JeQH0AOP0zi9Ihkc-4" value="READ" style="rounded=1;whiteSpace=wrap;html=1;" vertex="1" parent="1">
          <mxGeometry x="100" y="160" width="120" height="60" as="geometry" />
        </mxCell>
        <mxCell id="pan-JeQH0AOP0zi9Ihkc-9" value="" style="edgeStyle=orthogonalEdgeStyle;rounded=0;orthogonalLoop=1;jettySize=auto;html=1;" edge="1" parent="1" source="pan-JeQH0AOP0zi9Ihkc-5" target="pan-JeQH0AOP0zi9Ihkc-8">
          <mxGeometry relative="1" as="geometry" />
        </mxCell>
        <mxCell id="pan-JeQH0AOP0zi9Ihkc-5" value="WRITE" style="rounded=1;whiteSpace=wrap;html=1;" vertex="1" parent="1">
          <mxGeometry x="580" y="160" width="120" height="60" as="geometry" />
        </mxCell>
        <mxCell id="pan-JeQH0AOP0zi9Ihkc-6" value="ADD_READ_SENT" style="whiteSpace=wrap;html=1;rounded=1;" vertex="1" parent="1">
          <mxGeometry x="100" y="300" width="120" height="60" as="geometry" />
        </mxCell>
        <mxCell id="pan-JeQH0AOP0zi9Ihkc-11" value="" style="edgeStyle=orthogonalEdgeStyle;rounded=0;orthogonalLoop=1;jettySize=auto;html=1;" edge="1" parent="1" source="pan-JeQH0AOP0zi9Ihkc-8" target="pan-JeQH0AOP0zi9Ihkc-10">
          <mxGeometry relative="1" as="geometry" />
        </mxCell>
        <mxCell id="pan-JeQH0AOP0zi9Ihkc-8" value="ADDR_SENT" style="whiteSpace=wrap;html=1;rounded=1;" vertex="1" parent="1">
          <mxGeometry x="580" y="300" width="120" height="60" as="geometry" />
        </mxCell>
        <mxCell id="pan-JeQH0AOP0zi9Ihkc-18" value="" style="edgeStyle=orthogonalEdgeStyle;rounded=0;orthogonalLoop=1;jettySize=auto;html=1;" edge="1" parent="1" source="pan-JeQH0AOP0zi9Ihkc-10" target="pan-JeQH0AOP0zi9Ihkc-17">
          <mxGeometry relative="1" as="geometry" />
        </mxCell>
        <mxCell id="pan-JeQH0AOP0zi9Ihkc-20" value="" style="edgeStyle=orthogonalEdgeStyle;rounded=0;orthogonalLoop=1;jettySize=auto;html=1;" edge="1" parent="1" source="pan-JeQH0AOP0zi9Ihkc-10" target="pan-JeQH0AOP0zi9Ihkc-19">
          <mxGeometry relative="1" as="geometry" />
        </mxCell>
        <mxCell id="pan-JeQH0AOP0zi9Ihkc-10" value="REG_SENT" style="whiteSpace=wrap;html=1;rounded=1;" vertex="1" parent="1">
          <mxGeometry x="580" y="470" width="120" height="60" as="geometry" />
        </mxCell>
        <mxCell id="pan-JeQH0AOP0zi9Ihkc-17" value="DATA_WRITE" style="whiteSpace=wrap;html=1;rounded=1;" vertex="1" parent="1">
          <mxGeometry x="580" y="660" width="120" height="60" as="geometry" />
        </mxCell>
        <mxCell id="pan-JeQH0AOP0zi9Ihkc-19" value="Stop" style="whiteSpace=wrap;html=1;rounded=1;" vertex="1" parent="1">
          <mxGeometry x="380" y="470" width="120" height="60" as="geometry" />
        </mxCell>
      </root>
    </mxGraphModel>
  </diagram>
</mxfile>
